<svg width="734" height="160" viewBox="0 0 734 160" fill="none" xmlns="http://www.w3.org/2000/svg">
<g clip-path="url(#clip0_2027_2)">
<mask id="mask0_2027_2" style="mask-type:luminance" maskUnits="userSpaceOnUse" x="0" y="0" width="734" height="160">
<path d="M733.612 0H0V159.223H733.612V0Z" fill="white"/>
</mask>
<g mask="url(#mask0_2027_2)">
<mask id="mask1_2027_2" style="mask-type:luminance" maskUnits="userSpaceOnUse" x="0" y="0" width="734" height="160">
<path d="M0.5 0.5H733.112V158.723H0.5V0.5Z" fill="white" stroke="white"/>
</mask>
<g mask="url(#mask1_2027_2)">
<g opacity="0.5">
<mask id="mask2_2027_2" style="mask-type:luminance" maskUnits="userSpaceOnUse" x="14" y="0" width="146" height="146">
<g opacity="0.5">
<path d="M158.927 0.5V144.834H14.5938V0.5H158.927Z" fill="white" stroke="white"/>
</g>
</mask>
<g mask="url(#mask2_2027_2)">
<path d="M158.761 72.667C158.761 112.431 126.525 144.667 86.7617 144.667C46.9977 144.667 14.7617 112.431 14.7617 72.667C14.7617 32.903 46.9977 0.666992 86.7617 0.666992C126.525 0.666992 158.761 32.903 158.761 72.667Z" stroke="white" stroke-width="2" stroke-miterlimit="10"/>
</g>
</g>
<g opacity="0.300003">
<mask id="mask3_2027_2" style="mask-type:luminance" maskUnits="userSpaceOnUse" x="32" y="18" width="109" height="109">
<g opacity="0.300003">
<path d="M140.26 19.1665V126.167H33.2598V19.1665H140.26Z" fill="white" stroke="white"/>
</g>
</mask>
<g mask="url(#mask3_2027_2)">
<path d="M140.094 72.6668C140.094 102.121 116.216 126 86.761 126C57.305 126 33.4277 102.121 33.4277 72.6668C33.4277 43.2121 57.305 19.3335 86.761 19.3335C116.216 19.3335 140.094 43.2121 140.094 72.6668Z" stroke="white" stroke-width="2" stroke-miterlimit="10"/>
</g>
</g>
<path d="M74.7737 71.2382H74.3783H58.6663H58.1192L58.1683 70.6933C59.3635 57.4262 70.4662 47.0149 84.0236 46.9255L86.6595 44.8169H3.11567C0.790381 44.8169 -0.373085 47.6264 1.27055 49.27M74.7737 71.2382L1.27055 49.27M74.7737 71.2382L74.8648 70.8534C75.8676 66.6196 79.6616 63.4676 84.1997 63.4676C89.5035 63.4676 93.801 67.7662 93.801 73.0702C93.801 78.3728 89.5035 82.6716 84.1997 82.6716C79.6616 82.6716 75.8676 79.5195 74.8648 75.2857L74.7737 74.9009H74.3783H58.6663H38.3503H29.913C27.9843 74.9009 26.1355 74.1349 24.7718 72.7713C24.7718 72.7713 24.7718 72.7713 24.7718 72.7713M74.7737 71.2382L24.7718 72.7713M1.27055 49.27C1.27055 49.27 1.27055 49.27 1.27055 49.27M1.27055 49.27L1.27055 49.27M1.27055 49.27L24.7718 72.7713M1.27055 49.27L24.7718 72.7713" fill="white" stroke="white"/>
<path d="M75.8851 77.8711L75.8852 77.8713C78.1529 81.8011 82.7806 83.5108 86.9473 82.2622L87.3261 82.1486L87.5238 82.4911L95.3811 96.0991L95.6547 96.5729L95.1582 96.8028C83.07 102.4 68.5038 97.9918 61.6477 86.294L58.5031 85.0655L100.276 157.418C101.437 159.429 104.451 159.033 105.053 156.789L113.656 124.686C114.155 122.823 113.893 120.838 112.93 119.166L108.711 111.861L109.144 111.611L108.711 111.861L98.5524 94.2671L98.5524 94.2671L90.6964 80.6592L90.4986 80.3166L90.7865 80.0453C93.9528 77.0615 94.7843 72.1986 92.5164 68.2684C89.8638 63.6769 83.9909 62.103 79.3982 64.7541L75.8851 77.8711ZM75.8851 77.8711C73.2325 73.2783 74.8066 67.4055 79.3981 64.7541L75.8851 77.8711Z" fill="white" stroke="white"/>
<path d="M90.5 65.8218L90.6977 65.4793L98.5537 51.8713L98.8273 51.3974L99.2746 51.7125C110.167 59.3828 113.631 74.2021 106.931 85.9879L107.438 89.3258L149.212 16.974C150.374 14.9628 148.522 12.5489 146.276 13.1509L146.146 12.668L146.276 13.1509L114.174 21.7522L114.044 21.2693L114.174 21.7522C112.311 22.2513 110.723 23.4701 109.758 25.1407L105.539 32.4473L105.539 32.4473L95.3824 50.0407L95.3824 50.0407L87.5251 63.6473L87.3273 63.9897L86.9485 63.8762C82.782 62.6277 78.1542 64.3387 75.8864 68.2673L75.8863 68.2673C73.2339 72.8602 74.8079 78.7331 79.3994 81.3843L79.1494 81.8173L79.3994 81.3843C83.9921 84.0368 89.865 82.4629 92.5177 77.8701L90.5 65.8218ZM90.5 65.8218L90.7878 66.0931M90.5 65.8218L90.7878 66.0931M90.7878 66.0931C93.9541 69.0782 94.7855 73.9398 92.5178 77.8699L90.7878 66.0931Z" fill="white" stroke="white"/>
<path d="M232.495 59.5717H231.995V60.0717V111.435C231.995 112.087 231.843 112.461 231.626 112.678C231.409 112.895 231.035 113.047 230.383 113.047H219.918C219.267 113.047 218.893 112.895 218.676 112.678C218.459 112.461 218.306 112.087 218.306 111.435V60.0717V59.5717H217.806H187.661C187.026 59.5717 186.619 59.4035 186.369 59.1539C186.12 58.9044 185.951 58.4981 185.951 57.8637V48.4543C185.951 47.8203 186.119 47.4464 186.358 47.2237C186.602 46.9949 187.01 46.8423 187.661 46.8423H262.642C263.293 46.8423 263.7 46.9949 263.945 47.2234C264.183 47.446 264.35 47.8199 264.35 48.4543V57.8637C264.35 58.4984 264.182 58.9048 263.933 59.1541C263.683 59.4035 263.277 59.5717 262.642 59.5717H232.495Z" fill="white" stroke="white"/>
<path d="M286.729 46.8423C287.381 46.8423 287.756 46.9949 287.973 47.2121C288.19 47.4291 288.343 47.803 288.343 48.4543V86.761C288.343 91.8601 289.056 95.3327 291.16 97.5023C293.27 99.6769 296.652 100.414 301.611 100.414H328.205C333.164 100.414 336.525 99.6772 338.611 97.5002C340.691 95.3299 341.379 91.8573 341.379 86.761V48.4543C341.379 47.8027 341.532 47.4288 341.749 47.2118C341.966 46.9949 342.34 46.8423 342.991 46.8423H353.456C354.108 46.8423 354.482 46.9949 354.699 47.2118C354.916 47.4288 355.068 47.8027 355.068 48.4543V88.2024C355.068 97.3701 353.227 103.533 349.093 107.423C344.951 111.321 338.394 113.047 328.685 113.047H301.035C291.376 113.047 284.819 111.321 280.664 107.422C276.518 103.532 274.652 97.3685 274.652 88.2024V48.4543C274.652 47.8201 274.82 47.4462 275.058 47.2235C275.303 46.9949 275.71 46.8423 276.361 46.8423H286.729Z" fill="white" stroke="white"/>
<path d="M382.325 80.617V81.117H382.825H419.596C422.917 81.117 425.309 80.4111 426.862 78.8583C428.415 77.305 429.024 75.0074 429.024 72.0717V68.0397C429.024 65.1046 428.415 62.8073 426.862 61.2541C425.309 59.7016 422.917 58.9957 419.596 58.9957H384.073C383.578 58.9957 383.117 59.1043 382.782 59.4196C382.441 59.7409 382.325 60.1865 382.325 60.6477V80.617ZM428.82 90.3023L427.991 90.4523L428.52 91.1082L444.938 111.461L444.942 111.467L444.947 111.473C445.11 111.663 445.21 112.076 445.09 112.444C445.035 112.613 444.938 112.756 444.793 112.859C444.648 112.962 444.424 113.047 444.077 113.047H431.692C430.905 113.047 430.472 112.953 430.181 112.803C429.9 112.658 429.694 112.433 429.421 112.022L429.412 112.009L429.403 111.997L414.234 92.0278L414.084 91.8303H413.836H382.825H382.325V92.3303V111.435C382.325 112.087 382.172 112.461 381.955 112.677C381.738 112.895 381.363 113.047 380.712 113.047H370.344C369.693 113.047 369.285 112.895 369.041 112.666C368.803 112.443 368.635 112.069 368.635 111.435V49.2223C368.635 48.3395 368.855 47.7691 369.209 47.4159C369.562 47.0627 370.133 46.8423 371.016 46.8423H422.573C429.849 46.8423 434.855 48.5314 438.048 51.724C441.241 54.9164 442.715 59.7057 442.715 66.1197V71.5917C442.715 77.0078 441.668 81.2337 439.437 84.3205C437.214 87.3955 433.766 89.4072 428.82 90.3023Z" fill="white" stroke="white"/>
<path d="M469.705 84.245H469.205V84.745V99.0503C469.205 99.5446 469.313 100.014 469.652 100.352C469.99 100.69 470.46 100.798 470.955 100.798H510.317C512.901 100.798 514.823 100.339 516.099 99.2646C517.396 98.1725 517.921 96.5363 517.921 94.4423V90.7943C517.921 88.7417 517.392 87.0511 515.93 85.9003C514.499 84.7742 512.27 84.245 509.068 84.245H469.705ZM469.205 74.2796V74.7796H469.705H509.068C512.262 74.7796 514.465 74.3007 515.871 73.2525C517.318 72.174 517.825 70.5733 517.825 68.6156V65.3516C517.825 63.295 517.27 61.685 515.962 60.609C514.677 59.5516 512.759 59.0916 510.221 59.0916H470.955C470.46 59.0916 469.99 59.1995 469.652 59.5372C469.313 59.8751 469.205 60.3449 469.205 60.8396V74.2796ZM525.015 78.5689L524.344 79.0166L525.044 79.4186C529.378 81.9073 531.419 85.8537 531.419 91.3703V96.9383C531.419 101.971 530.372 105.974 527.843 108.721C525.32 111.46 521.232 113.048 514.925 113.048H457.897C457.013 113.048 456.443 112.827 456.089 112.474C455.736 112.121 455.516 111.551 455.516 110.668V49.2223C455.516 48.3394 455.736 47.769 456.089 47.4159C456.443 47.0627 457.013 46.8423 457.897 46.8423H513.197C519.774 46.8423 524.183 48.132 526.951 50.6372C529.707 53.1311 530.939 56.9242 530.939 62.1836V66.7916C530.939 72.1124 528.897 75.9822 525.015 78.5689Z" fill="white" stroke="white"/>
<path d="M555.815 46.8423C556.467 46.8423 556.841 46.9949 557.058 47.212C557.275 47.4289 557.428 47.8028 557.428 48.4543V111.435C557.428 112.087 557.275 112.461 557.058 112.678C556.841 112.895 556.467 113.047 555.815 113.047H545.447C544.796 113.047 544.389 112.895 544.144 112.666C543.906 112.443 543.738 112.069 543.738 111.435V48.4543C543.738 47.8201 543.906 47.4462 544.144 47.2235C544.389 46.9949 544.796 46.8423 545.447 46.8423H555.815Z" fill="white" stroke="white"/>
<path d="M598.521 52.3064L598.521 52.3064L598.525 52.3108L634.224 99.1404C634.402 99.4308 634.627 99.6625 634.919 99.8173C635.216 99.9746 635.543 100.032 635.885 100.032H636.749C637.093 100.032 637.443 99.9239 637.695 99.6256C637.934 99.3429 638.017 98.9665 638.017 98.5704V48.4543C638.017 47.8027 638.17 47.4288 638.387 47.2119C638.604 46.995 638.978 46.8423 639.63 46.8423H649.71C650.362 46.8423 650.736 46.9949 650.953 47.2118C651.17 47.4288 651.322 47.8027 651.322 48.4543V103.563C651.322 107.415 650.627 109.748 649.333 111.129C648.049 112.5 646.066 113.047 643.182 113.047H634.925C631.992 113.047 630.278 112.897 628.823 112.175C627.367 111.453 626.108 110.126 624.186 107.582L624.185 107.58L588.375 60.7281L588.375 60.728L588.367 60.7184C588.161 60.4627 587.945 60.2352 587.67 60.08C587.383 59.9185 587.077 59.8597 586.729 59.8597H585.865C585.5 59.8597 585.123 59.9531 584.869 60.282C584.641 60.5764 584.595 60.9617 584.595 61.3197V111.435C584.595 112.087 584.443 112.461 584.226 112.678C584.009 112.895 583.635 113.047 582.983 113.047H572.903C572.252 113.047 571.845 112.895 571.601 112.666C571.363 112.443 571.195 112.07 571.195 111.435V56.3277C571.195 52.4747 571.89 50.1417 573.184 48.7603C574.468 47.3897 576.451 46.8423 579.335 46.8423H587.785C590.857 46.8423 592.618 47.0396 594.06 47.7829C595.506 48.5278 596.693 49.8527 598.521 52.3064Z" fill="white" stroke="white"/>
<path d="M727.17 78.5838L726.587 79.0171L727.2 79.4068C731.249 81.9835 733.112 86.0294 733.112 91.3704V96.9383C733.112 101.968 732.043 105.972 729.501 108.72C726.966 111.46 722.877 113.047 716.619 113.047H665.157C664.505 113.047 664.131 112.895 663.914 112.678C663.698 112.461 663.545 112.087 663.545 111.435V102.891C663.545 102.24 663.698 101.866 663.914 101.649C664.131 101.432 664.505 101.279 665.157 101.279H712.299C714.837 101.279 716.759 100.819 718.045 99.7328C719.352 98.6298 719.903 96.9712 719.903 94.8263V91.2744C719.903 89.2228 719.375 87.5112 717.916 86.3363C716.486 85.1839 714.256 84.629 711.049 84.629H665.735C665.084 84.629 664.677 84.4764 664.432 84.2478C664.195 84.0252 664.027 83.6513 664.027 83.017V76.201C664.027 75.5666 664.195 75.1927 664.432 74.9701C664.677 74.7416 665.084 74.589 665.735 74.589H711.049C714.248 74.589 716.452 74.0847 717.858 73.0096C719.301 71.9068 719.807 70.2849 719.807 68.3277V64.9677C719.807 62.8671 719.254 61.2315 717.933 60.1419C716.634 59.0713 714.691 58.6117 712.105 58.6117H665.157C664.505 58.6117 664.131 58.4591 663.914 58.2421C663.698 58.0252 663.545 57.6513 663.545 56.9997V48.4543C663.545 47.8027 663.698 47.4288 663.914 47.2118C664.131 46.9949 664.505 46.8423 665.157 46.8423H714.891C721.467 46.8423 725.876 48.132 728.644 50.6372C731.4 53.1311 732.632 56.9242 732.632 62.1837V66.7917C732.632 71.9372 730.768 75.9074 727.17 78.5838Z" fill="white" stroke="white"/>
</g>
</g>
</g>
<defs>
<clipPath id="clip0_2027_2">
<rect width="734" height="160" fill="white"/>
</clipPath>
</defs>
</svg>
