<svg width="670" height="157" viewBox="0 0 670 157" fill="none" xmlns="http://www.w3.org/2000/svg">
<path d="M56.5 142.515L14.4853 100.5H56.5V142.515Z" stroke="#FF25CF" stroke-width="12"/>
<path d="M68.5 46.4853L110.515 88.5H68.5V46.4853Z" stroke="#FF25CF" stroke-width="12"/>
<path d="M48 79L62.5 32L0 94.5L48 79Z" fill="#FF25CF"/>
<path d="M77.75 110L62.5 157L125 94.5L77.75 110Z" fill="#FF25CF"/>
<path d="M239.701 143H153.434V131.528L202.123 72.6313H155.963V52.668H236.811V62.3335L186.767 123.037H239.701V143ZM266.259 28.73C263.127 28.73 260.478 27.646 258.31 25.478C256.202 23.2498 255.148 20.57 255.148 17.4385C255.148 14.3672 256.202 11.7476 258.31 9.57959C260.478 7.3514 263.127 6.2373 266.259 6.2373C269.451 6.2373 272.13 7.3514 274.298 9.57959C276.466 11.7476 277.55 14.3672 277.55 17.4385C277.55 20.57 276.466 23.2498 274.298 25.478C272.13 27.646 269.451 28.73 266.259 28.73ZM277.37 143H255.148V52.668H277.37V143ZM323.981 143H301.759V52.668H321.09L321.903 69.1084C325.035 63.3271 329.25 58.8407 334.55 55.6489C339.91 52.4572 346.052 50.8613 352.978 50.8613C354.784 50.8613 356.621 50.9818 358.488 51.2227C360.415 51.4635 362.312 51.8249 364.179 52.3066L361.469 72.3604C357.735 71.2764 354.122 70.7344 350.629 70.7344C345.329 70.7344 340.662 71.9689 336.627 74.438C332.653 76.9071 329.551 80.3397 327.323 84.7358C325.095 89.0718 323.981 94.1304 323.981 99.9116V143ZM455.685 129.089C451.289 134.087 445.959 137.972 439.696 140.742C433.433 143.452 426.598 144.807 419.191 144.807C410.037 144.807 401.817 142.759 394.53 138.664C387.304 134.569 381.583 128.999 377.367 121.953C373.212 114.847 371.134 106.807 371.134 97.834C371.134 88.861 373.212 80.8516 377.367 73.8057C381.583 66.6995 387.304 61.099 394.53 57.0039C401.817 52.9089 410.037 50.8613 419.191 50.8613C426.538 50.8613 433.313 52.2163 439.516 54.9263C445.779 57.6362 451.108 61.4603 455.504 66.3984L442.497 80.2192C439.787 77.2684 436.505 74.98 432.65 73.354C428.856 71.728 424.822 70.915 420.546 70.915C415.367 70.915 410.76 72.0592 406.725 74.3477C402.75 76.6361 399.619 79.7977 397.331 83.8325C395.102 87.8674 393.988 92.5044 393.988 97.7437C393.988 102.983 395.102 107.65 397.331 111.745C399.619 115.78 402.75 118.972 406.725 121.32C410.76 123.609 415.367 124.753 420.546 124.753C424.822 124.753 428.887 123.94 432.741 122.314C436.595 120.628 439.847 118.339 442.497 115.449L455.685 129.089ZM515.214 144.807C506 144.807 497.75 142.759 490.463 138.664C483.236 134.569 477.515 128.999 473.3 121.953C469.145 114.847 467.067 106.807 467.067 97.834C467.067 88.861 469.145 80.8516 473.3 73.8057C477.515 66.6995 483.236 61.099 490.463 57.0039C497.75 52.9089 506 50.8613 515.214 50.8613C524.368 50.8613 532.558 52.9089 539.784 57.0039C547.011 61.099 552.672 66.6995 556.767 73.8057C560.922 80.8516 563 88.861 563 97.834C563 106.807 560.922 114.847 556.767 121.953C552.672 128.999 547.011 134.569 539.784 138.664C532.558 142.759 524.368 144.807 515.214 144.807ZM515.033 124.843C519.851 124.843 524.157 123.669 527.951 121.32C531.745 118.972 534.726 115.75 536.894 111.655C539.122 107.56 540.236 102.923 540.236 97.7437C540.236 92.6248 539.122 88.048 536.894 84.0132C534.726 79.9181 531.745 76.6963 527.951 74.3477C524.157 71.999 519.851 70.8247 515.033 70.8247C510.276 70.8247 505.97 71.999 502.116 74.3477C498.322 76.6963 495.311 79.9181 493.083 84.0132C490.915 88.048 489.831 92.6248 489.831 97.7437C489.831 102.923 490.915 107.56 493.083 111.655C495.311 115.75 498.322 118.972 502.116 121.32C505.97 123.669 510.276 124.843 515.033 124.843ZM669.14 143H646.918V95.3047C646.918 87.777 644.991 81.8452 641.137 77.5093C637.283 73.1131 632.073 70.915 625.509 70.915C618.764 70.915 613.345 73.2336 609.25 77.8706C605.154 82.4474 603.107 88.6201 603.107 96.3887V143H580.885V52.668H599.223L599.945 67.2114C603.197 61.9119 607.473 57.8771 612.772 55.1069C618.132 52.2765 624.395 50.8613 631.562 50.8613C643.244 50.8613 652.428 54.4144 659.113 61.5205C665.797 68.6266 669.14 78.4427 669.14 90.9688V143Z" fill="white"/>
</svg>
